Coordinates
version=1
nRows=21
nColumns=22
inDegrees=yes

Units are S.I. units (second, meters, Newtons, ...)
If the header above contains a line with 'inDegrees', this indicates whether rotational values are in degrees (yes) or radians (no).

endheader
time	pelvis_tilt	pelvis_list	pelvis_rotation	pelvis_tx	pelvis_ty	pelvis_tz	hip_flexion_r	hip_adduction_r	hip_rotation_r	knee_angle_r	ankle_angle_r	subtalar_angle_r	hip_flexion_l	hip_adduction_l	hip_rotation_l	knee_angle_l	ankle_angle_l	subtalar_angle_l	lumbar_extension	lumbar_bending	lumbar_rotation
      1.09000000	     -4.57715475	     -2.88787700	     -7.31135339	     -1.22146380	      0.92029820	      0.06128988	      1.24946923	      6.28793665	      2.47628311	    -12.36011857	     10.65701333	     -4.21075044	      2.26703973	     -7.40882336	    -12.62020229	    -16.55728681	     14.44266339	      2.29215931	     -0.56591010	     -0.50071369	      1.06344618
      1.10000000	     -4.63409107	     -3.04887282	     -7.31119365	     -1.22036887	      0.91954441	      0.06293004	      1.39467765	      6.59313000	      2.51708274	    -12.75354844	     10.87115987	     -4.37268369	      2.79440407	     -7.77396977	    -12.29054109	    -17.67398331	     14.81453790	      2.28182629	     -0.59681104	     -0.36940824	      1.14797361
      1.11000000	     -4.68406465	     -3.22246064	     -7.29456582	     -1.21931619	      0.91872285	      0.06459408	      1.54062657	      6.91658330	      2.55613066	    -13.16254395	     11.10887471	     -4.55515058	      3.40751758	     -8.15692803	    -11.87933656	    -18.95559508	     15.16073658	      2.25999692	     -0.65903033	     -0.23093575	      1.24020106
      1.12000000	     -4.69478435	     -3.41936789	     -7.25813336	     -1.21828507	      0.91786700	      0.06624836	      1.64818435	      7.26205916	      2.58716736	    -13.58210423	     11.36083337	     -4.73687129	      4.07689311	     -8.55841473	    -11.38136438	    -20.41702399	     15.51862854	      2.21443670	     -0.79073797	     -0.07043066	      1.34582199
      1.13000000	     -4.65984224	     -3.63268650	     -7.20653336	     -1.21728717	      0.91699156	      0.06790146	      1.71162560	      7.62191065	      2.60909649	    -14.01064776	     11.63532425	     -4.91257096	      4.80335211	     -8.96577663	    -10.79884130	    -22.07007083	     15.85928982	      2.13442704	     -1.00487625	      0.09656083	      1.46472343
      1.14000000	     -4.64335580	     -3.83833350	     -7.12496143	     -1.21634398	      0.91601778	      0.06947553	      1.81635791	      7.97394270	      2.60657505	    -14.47048778	     11.96419433	     -5.13315508	      5.69512701	     -9.35721602	    -10.13513908	    -23.96838164	     16.06776583	      1.97810841	     -1.21636012	      0.26368471	      1.60515952
      1.15000000	     -4.50161573	     -4.08202156	     -7.01549064	     -1.21537838	      0.91515453	      0.07098698	      1.77068393	      8.34819948	      2.59757922	    -14.90531357	     12.25393012	     -5.28907808	      6.56064257	     -9.75429946	     -9.39992238	    -26.06571506	     16.29840555	      1.81093396	     -1.60263816	      0.45919938	      1.75126863
      1.16000000	     -4.39932997	     -4.29776516	     -6.88541368	     -1.21449237	      0.91419745	      0.07241010	      1.79845554	      8.69284931	      2.53644578	    -15.37875992	     12.60957643	     -5.48657378	      7.63192733	    -10.11038518	     -8.62202873	    -28.42486657	     16.28821750	      1.54156154	     -1.96378813	      0.63007018	      1.93189726
      1.17000000	     -4.15601601	     -4.54762197	     -6.71598756	     -1.21355149	      0.91341854	      0.07371506	      1.64472542	      9.04996279	      2.47093102	    -15.79779430	     12.93017406	     -5.61093445	      8.67000031	    -10.46320141	     -7.81616320	    -30.98345822	     16.21597418	      1.30701667	     -2.51105859	      0.83113840	      2.10536489
      1.18000000	     -3.97778227	     -4.74811115	     -6.54214795	     -1.21270605	      0.91256073	      0.07492702	      1.60779155	      9.35454848	      2.34208852	    -16.27801103	     13.28137168	     -5.77397635	      9.93360402	    -10.74781367	     -6.99370516	    -33.76732823	     15.83333716	      0.94924230	     -3.00072834	      0.98780505	      2.34064030
      1.19000000	     -3.70912513	     -4.95184309	     -6.33853060	     -1.21178509	      0.91185801	      0.07601024	      1.44514305	      9.64365075	      2.20156950	    -16.70321384	     13.60263813	     -5.89345832	     11.20833540	    -10.99892294	     -6.17375900	    -36.70324580	     15.26832097	      0.59428927	     -3.60213365	      1.14983845	      2.58644232
      1.20000000	     -3.41647687	     -5.13067907	     -6.12157449	     -1.21083836	      0.91124006	      0.07699605	      1.25060387	      9.89734588	      2.05637168	    -17.10781126	     13.90904090	     -6.00154115	     12.56077452	    -11.19207803	     -5.35767770	    -39.75978507	     14.46653084	      0.18048491	     -4.23915877	      1.28816672	      2.84020230
      1.21000000	     -3.10229727	     -5.27852987	     -5.89565415	     -1.20980296	      0.91071552	      0.07787709	      1.01639069	     10.10761046	      1.89748077	    -17.47839403	     14.18838713	     -6.09852485	     13.96109321	    -11.31335865	     -4.54964669	    -42.86859999	     13.45548492	     -0.28804077	     -4.89719680	      1.39965963	      3.12486653
      1.22000000	     -2.78281888	     -5.38114125	     -5.67169025	     -1.20865029	      0.91026939	      0.07866494	      0.75874795	     10.26164865	      1.74021330	    -17.81764152	     14.45505401	     -6.18807776	     15.39737866	    -11.34758306	     -3.77164600	    -45.96384847	     12.28721310	     -0.80081972	     -5.54886104	      1.46935419	      3.43632155
      1.23000000	     -2.46983408	     -5.43104600	     -5.45390761	     -1.20733625	      0.90989244	      0.07936415	      0.48165563	     10.35197773	      1.58701754	    -18.11653728	     14.71171551	     -6.27132370	     16.84901767	    -11.28767626	     -3.04159847	    -48.97166261	     11.03466704	     -1.31650176	     -6.17246059	      1.49110018	      3.77511614
      1.24000000	     -2.17142445	     -5.41727593	     -5.25806911	     -1.20584106	      0.90958442	      0.08000121	      0.19288027	     10.36917554	      1.45906887	    -18.37602394	     14.96110872	     -6.34862561	     18.28600618	    -11.12672029	     -2.38792854	    -51.81198684	      9.79185888	     -1.77223918	     -6.75475996	      1.45027049	      4.12848232
      1.25000000	     -1.86578830	     -5.32392552	     -5.09434885	     -1.20412203	      0.90940737	      0.08060547	     -0.15201515	     10.29771726	      1.41044493	    -18.56457927	     15.18043822	     -6.40946743	     19.64202117	    -10.85224500	     -1.83974503	    -54.39582502	      8.61959294	     -2.07590436	     -7.31729017	      1.32332156	      4.47468714
      1.26000000	     -1.64001465	     -5.19013455	     -4.96516997	     -1.20218935	      0.90917637	      0.08116142	     -0.41823137	     10.17268296	      1.27962366	    -18.76352458	     15.44428388	     -6.48865392	     21.01453946	    -10.53222726	     -1.41875785	    -56.71718096	      7.69207446	     -2.27226329	     -7.75725982	      1.16746388	      4.87321445
      1.27000000	     -1.39898904	     -4.96575231	     -4.87731668	     -1.19996515	      0.90913218	      0.08170301	     -0.77741296	      9.94189630	      1.22847564	    -18.84308747	     15.64696963	     -6.54132865	     22.24783660	    -10.10540807	     -1.14527041	    -58.66777511	      6.93083767	     -2.25503605	     -8.17754700	      0.90965164	      5.25849618
      1.28000000	     -1.16999558	     -4.67707996	     -4.83721461	     -1.19745491	      0.90920670	      0.08222875	     -1.17739226	      9.62997678	      1.20681426	    -18.85292289	     15.82428551	     -6.57218656	     23.37612244	     -9.62209210	     -1.04149403	    -60.25043994	      6.38535051	     -2.08221010	     -8.54776527	      0.58559492	      5.65615628
      1.29000000	     -0.96151629	     -4.32854349	     -4.84906425	     -1.19464110	      0.90939479	      0.08274662	     -1.62184686	      9.23810700	      1.19236293	    -18.76768833	     15.97718373	     -6.58253261	     24.40869455	     -9.10170206	     -1.11498204	    -61.46036657	      6.01150189	     -1.76979825	     -8.85686419	      0.19998655	      6.07766045
